<svg width="140" height="21" viewBox="0 0 140 21" fill="none" xmlns="http://www.w3.org/2000/svg">
<path fill-rule="evenodd" clip-rule="evenodd" d="M7.0971 0.525391L13.262 15.9309H13.3751L19.2 0.525391H25.704V0.868411C23.272 0.954243 22.6216 1.61167 22.6216 2.75457V18.189C22.6216 19.3605 23.272 19.9896 25.704 20.0751V20.4471H16.4856V20.0751C18.8889 19.9896 19.3414 19.418 19.3414 18.189V2.44046H19.2L12.3574 20.4754H11.7066L4.26974 2.38324H4.12829V15.6737C4.12829 18.4748 4.83558 19.6752 7.69134 20.0751V20.4471H0V20.0751C2.65809 19.6466 3.4216 18.4748 3.4216 15.6737V4.06943C3.4216 2.32633 2.43139 0.925328 0 0.868411V0.525391H7.0971ZM44.6031 4.74354V5.01382C42.5801 5.08139 42.3138 5.55438 42.3138 6.50096V20.0179H44.0476C47.1155 20.0179 48.405 18.959 49.916 15.1517L50.2273 15.1745L50.0051 20.4458H37.2896V20.153C39.2235 20.0854 39.7131 19.5899 39.7131 18.6662V6.50096C39.7131 5.59942 39.2235 5.08139 37.2896 5.01382V4.74354H44.6031ZM113.953 4.73487L122.321 16.6045H122.342V8.46671C122.342 6.2637 121.625 5.31925 119.518 5.00484V4.73487H125.314V5.00484C123.333 5.3646 122.848 6.2637 122.848 8.46671V20.4374H122.152L112.562 7.27542H112.541V16.6496C112.541 18.8526 113.089 19.797 115.239 20.1118V20.404H109.463V20.1118C111.445 19.7745 112.035 18.8526 112.035 16.6496V7.61235C112.035 6.21866 111.276 5.09463 109.463 5.00484V4.73487H113.953ZM35.4932 4.73493V5.00551C33.3608 5.07278 32.8684 5.59111 32.8684 6.49265V18.6576C32.8684 19.5813 33.3608 20.0771 35.4932 20.1447V20.4375H27.525V20.1447C29.6577 20.0771 30.1501 19.5813 30.1501 18.6576V6.49265C30.1501 5.59111 29.6577 5.07278 27.525 5.00551V4.73493H35.4932ZM64.3008 4.73493L64.3643 9.80385L64.0684 9.8492C62.8421 6.6497 61.8698 5.16317 59.354 5.16317H56.8175V12.0793H57.9591C59.7134 12.0793 60.6435 11.3811 61.2145 8.99302H61.4898V15.5941H61.2145C60.6435 13.2058 59.7134 12.5072 57.9591 12.5072H56.8175V20.0096H59.312C62.2721 20.0096 63.3922 18.5002 64.6817 15.053L64.9776 15.0758L64.8718 20.4375H52.0399V20.1447C53.8789 20.0771 54.3443 19.5813 54.3443 18.6576V6.49265C54.3443 5.59111 53.8789 5.07278 52.0399 5.00551V4.73493H64.3008ZM139.323 4.73493L139.386 9.80385L139.09 9.8492C137.864 6.6497 136.892 5.16317 134.376 5.16317H131.84V12.0793H132.981C134.736 12.0793 135.666 11.3811 136.237 8.99302H136.512V15.5941H136.237C135.666 13.2058 134.736 12.5072 132.981 12.5072H131.84V20.0096H134.334C137.294 20.0096 138.414 18.5002 139.704 15.053L140 15.0758L139.894 20.4375H127.062V20.1447C128.901 20.0771 129.366 19.5813 129.366 18.6576V6.49265C129.366 5.59111 128.901 5.07278 127.062 5.00551V4.73493H139.323ZM101.149 4.73113C104.666 4.73113 107.609 7.78118 107.609 12.55C107.609 17.2759 104.57 20.4334 101.149 20.4334C97.6136 20.4334 94.6707 17.383 94.6707 12.6142C94.6707 7.88862 97.7097 4.73113 101.149 4.73113ZM77.2764 4.7195V9.48344H76.9484C75.6593 6.66379 74.1597 5.25366 72.2621 5.25366C70.6686 5.25366 69.2163 6.19354 69.2163 7.88156C69.2163 9.71872 70.7387 10.4023 73.4334 11.2141L73.8393 11.3395C75.9402 11.9957 78.0492 12.8135 78.0492 15.4228C78.0492 17.7729 76.5261 20.3368 72.4725 20.3368C71.1371 20.3368 69.5675 19.9092 68.5365 19.375L67.1306 20.4221H66.8498V15.081H67.1778C68.5836 17.9226 70.2473 19.9092 72.7542 19.9092C75.0502 19.9092 76.1979 18.4991 76.1979 17.1535C76.1979 15.2731 74.7924 14.5256 71.8873 13.607C69.5445 12.8592 67.1071 12.1753 67.1071 9.41922C67.1071 6.59927 69.4735 4.84764 72.6366 4.84764C74.0192 4.84764 75.3077 5.21075 76.1516 5.57416L76.9946 4.7195H77.2764ZM92.6991 4.70136L92.8233 9.59009L92.5335 9.61262C91.2501 6.77409 89.9249 5.1293 88.3523 5.1293H87.5449V18.624C87.5449 19.5477 88.1658 20.0433 90.0078 20.1108V20.4039H82.68V20.1108C84.5226 20.0433 85.1435 19.5477 85.1435 18.624V5.1293H84.3364C82.8046 5.1293 81.4798 6.66148 80.1755 9.61262L79.8856 9.59009L80.0102 4.70136H92.6991ZM101.054 5.13928C98.6842 5.13928 97.2122 6.98648 97.2122 12.5716C97.2122 18.1996 98.8368 20.0252 101.226 20.0252C103.595 20.0252 105.086 18.178 105.086 12.5929C105.086 6.96487 103.442 5.13928 101.054 5.13928Z" fill="#A6A6A6"/>
</svg>
