<svg width="80" height="11" viewBox="0 0 80 11" fill="none" xmlns="http://www.w3.org/2000/svg">
<path fill-rule="evenodd" clip-rule="evenodd" d="M3.58496 0L6.69905 8.23686H6.75615L9.69848 0H12.9839V0.183403C11.7554 0.229294 11.4268 0.580803 11.4268 1.19187V9.4442C11.4268 10.0706 11.7554 10.4069 12.9839 10.4527V10.6515H8.3274V10.4527C9.54137 10.4069 9.76993 10.1013 9.76993 9.4442V1.02393H9.69848L6.24207 10.6667H5.91335L2.15678 0.993338H2.08532V8.09935C2.08532 9.59701 2.4426 10.2388 3.88513 10.4527V10.6515H0V10.4527C1.34268 10.2235 1.72835 9.59701 1.72835 8.09935V1.89489C1.72835 0.962906 1.22817 0.213834 0 0.183403V0H3.58496ZM22.5304 2.25532V2.39983C21.5085 2.43596 21.374 2.68885 21.374 3.19496V10.422H22.2498C23.7995 10.422 24.4508 9.85588 25.2141 7.82022L25.3713 7.83243L25.2591 10.6508H18.8361V10.4943C19.813 10.4582 20.0603 10.1932 20.0603 9.69933V3.19496C20.0603 2.71293 19.813 2.43596 18.8361 2.39983V2.25532H22.5304ZM57.5611 2.25068L61.788 8.59704H61.7986V4.24598C61.7986 3.0681 61.4366 2.56313 60.3721 2.39503V2.25068H63.3V2.39503C62.2991 2.58738 62.0542 3.0681 62.0542 4.24598V10.6464H61.7028L56.8585 3.60904H56.8478V8.62113C56.8478 9.79901 57.1244 10.304 58.2106 10.4722V10.6285H55.2932V10.4722C56.294 10.2919 56.5922 9.79901 56.5922 8.62113V3.78918C56.5922 3.04402 56.209 2.44304 55.2932 2.39503V2.25068H57.5611ZM17.9287 2.25071V2.39539C16.8515 2.43135 16.6028 2.70849 16.6028 3.19051V9.69473C16.6028 10.1886 16.8515 10.4537 17.9287 10.4899V10.6464H13.9037V10.4899C14.981 10.4537 15.2297 10.1886 15.2297 9.69473V3.19051C15.2297 2.70849 14.981 2.43135 13.9037 2.39539V2.25071H17.9287ZM32.4803 2.25071L32.5124 4.96091L32.3629 4.98516C31.7435 3.27448 31.2523 2.47968 29.9815 2.47968H28.7002V6.17752H29.2769C30.1631 6.17752 30.6329 5.80421 30.9213 4.52739H31.0604V8.0568H30.9213C30.6329 6.77981 30.1631 6.40633 29.2769 6.40633H28.7002V10.4176H29.9603C31.4555 10.4176 32.0213 9.61059 32.6727 7.76745L32.8222 7.77965L32.7687 10.6464H26.2869V10.4899C27.2158 10.4537 27.451 10.1886 27.451 9.69473V3.19051C27.451 2.70849 27.2158 2.43135 26.2869 2.39539V2.25071H32.4803ZM70.3762 2.25071L70.4083 4.96091L70.2588 4.98516C69.6394 3.27448 69.1484 2.47968 67.8774 2.47968H66.5963V6.17752H67.1728C68.0591 6.17752 68.5289 5.80421 68.8173 4.52739H68.9563V8.0568H68.8173C68.5289 6.77981 68.0591 6.40633 67.1728 6.40633H66.5963V10.4176H67.8564C69.3514 10.4176 69.9173 9.61059 70.5686 7.76745L70.7182 7.77965L70.6646 10.6464H64.183V10.4899C65.1119 10.4537 65.3469 10.1886 65.3469 9.69473V3.19051C65.3469 2.70849 65.1119 2.43135 64.183 2.39539V2.25071H70.3762ZM51.0935 2.24868C52.8698 2.24868 54.3564 3.87945 54.3564 6.42919C54.3564 8.95599 52.8214 10.6442 51.0935 10.6442C49.3076 10.6442 47.8211 9.01327 47.8211 6.46353C47.8211 3.9369 49.3561 2.24868 51.0935 2.24868ZM39.0346 2.24246V4.7896H38.869C38.2178 3.28202 37.4603 2.52806 36.5018 2.52806C35.6969 2.52806 34.9632 3.03059 34.9632 3.93312C34.9632 4.9154 35.7323 5.2809 37.0934 5.71491L37.2985 5.78198C38.3597 6.13285 39.425 6.57011 39.425 7.96522C39.425 9.22171 38.6557 10.5926 36.6081 10.5926C35.9335 10.5926 35.1406 10.3639 34.6198 10.0783L33.9097 10.6382H33.7679V7.78247H33.9335C34.6437 9.30177 35.484 10.3639 36.7504 10.3639C37.9101 10.3639 38.4899 9.60999 38.4899 8.89054C38.4899 7.88516 37.7799 7.48548 36.3125 6.99434C35.129 6.5945 33.8978 6.22884 33.8978 4.75526C33.8978 3.24752 35.0932 2.31098 36.691 2.31098C37.3893 2.31098 38.0402 2.50512 38.4665 2.69943L38.8923 2.24246H39.0346ZM46.8251 2.23276L46.8879 4.84662L46.7415 4.85867C46.0932 3.34099 45.4238 2.46157 44.6294 2.46157H44.2216V9.67678C44.2216 10.1707 44.5352 10.4356 45.4656 10.4717V10.6285H41.7642V10.4717C42.6949 10.4356 43.0085 10.1707 43.0085 9.67678V2.46157H42.6009C41.8271 2.46157 41.1579 3.28078 40.4991 4.85867L40.3526 4.84662L40.4156 2.23276H46.8251ZM51.0452 2.46691C49.8484 2.46691 49.1048 3.45455 49.1048 6.44075C49.1048 9.44989 49.9255 10.426 51.1321 10.426C52.329 10.426 53.082 9.43834 53.082 6.45214C53.082 3.443 52.2519 2.46691 51.0452 2.46691Z" fill="#6D7C96"/>
<path d="M79.9998 3.8869H77.7898V6.20269H76.4639V3.8869H74.2539V2.49743H76.4639V0.181641H77.7898V2.49743H79.9998V3.8869Z" fill="#6D7C96"/>
</svg>
