<svg width="181" height="24" viewBox="0 0 181 24" fill="none" xmlns="http://www.w3.org/2000/svg">
<path fill-rule="evenodd" clip-rule="evenodd" d="M8.11097 0L15.1566 17.7841H15.2858L21.9428 0H29.376V0.395984C26.5966 0.495067 25.8532 1.25401 25.8532 2.57337V20.3909C25.8532 21.7433 26.5966 22.4695 29.376 22.5683V22.9976H18.8407V22.5683C21.5873 22.4695 22.1045 21.8097 22.1045 20.3909V2.21076H21.9428L14.1227 23.0303H13.379L4.87971 2.14471H4.71805V17.4872C4.71805 20.7208 5.52637 22.1066 8.79011 22.5683V22.9976H0V22.5683C3.03781 22.0735 3.9104 20.7208 3.9104 17.4872V4.09125C3.9104 2.079 2.77873 0.461688 0 0.395984V0H8.11097ZM50.975 4.86944V5.18145C48.663 5.25945 48.3586 5.80547 48.3586 6.8982V22.5021H50.3401C53.8463 22.5021 55.32 21.2798 57.0468 16.8846L57.4026 16.9109L57.1487 22.9961H42.6167V22.6581C44.8268 22.5801 45.3865 22.0081 45.3865 20.9417V6.8982C45.3865 5.85747 44.8268 5.25945 42.6167 5.18145V4.86944H50.975ZM130.232 4.85943L139.795 18.5618H139.819V9.16746C139.819 6.62431 139 5.53404 136.592 5.17108V4.85943H143.216V5.17108C140.952 5.58639 140.398 6.62431 140.398 9.16746V22.9865H139.602L128.642 7.79224H128.618V18.6138C128.618 21.1569 129.244 22.2472 131.702 22.6105V22.9478H125.101V22.6105C127.365 22.2212 128.04 21.1569 128.04 18.6138V8.18119C128.04 6.57231 127.173 5.27474 125.101 5.17108V4.85943H130.232ZM40.5637 4.8595V5.17186C38.1266 5.24951 37.5638 5.84788 37.5638 6.88861V20.9318C37.5638 21.9982 38.1266 22.5705 40.5637 22.6485V22.9866H31.4571V22.6485C33.8946 22.5705 34.4573 21.9982 34.4573 20.9318V6.88861C34.4573 5.84788 33.8946 5.24951 31.4571 5.17186V4.8595H40.5637ZM73.4867 4.8595L73.5592 10.7111L73.221 10.7634C71.8196 7.06991 70.7083 5.35386 67.8332 5.35386H64.9342V13.3378H66.239C68.2439 13.3378 69.3068 12.5318 69.9594 9.77504H70.2741V17.3954H69.9594C69.3068 14.6382 68.2439 13.8318 66.239 13.8318H64.9342V22.4925H67.7852C71.1681 22.4925 72.4483 20.7501 73.9219 16.7706L74.2601 16.797L74.1392 22.9866H59.4742V22.6485C61.5759 22.5705 62.1078 21.9982 62.1078 20.9318V6.88861C62.1078 5.84788 61.5759 5.24951 59.4742 5.17186V4.8595H73.4867ZM159.226 4.8595L159.299 10.7111L158.961 10.7634C157.559 7.06991 156.448 5.35386 153.573 5.35386H150.674V13.3378H151.978C153.984 13.3378 155.047 12.5318 155.699 9.77504H156.014V17.3954H155.699C155.047 14.6382 153.984 13.8318 151.978 13.8318H150.674V22.4925H153.525C156.908 22.4925 158.188 20.7501 159.661 16.7706L160 16.797L159.879 22.9866H145.214V22.6485C147.316 22.5705 147.847 21.9982 147.847 20.9318V6.88861C147.847 5.84788 147.316 5.24951 145.214 5.17186V4.8595H159.226ZM115.599 4.85511C119.618 4.85511 122.981 8.37609 122.981 13.8812C122.981 19.3368 119.508 22.9818 115.599 22.9818C111.558 22.9818 108.195 19.4605 108.195 13.9554C108.195 8.50012 111.668 4.85511 115.599 4.85511ZM88.3158 4.84168V10.3412H87.941C86.4677 7.08618 84.754 5.45832 82.5853 5.45832C80.7641 5.45832 79.1043 6.54332 79.1043 8.49197C79.1043 10.6128 80.8443 11.4019 83.9239 12.339L84.3878 12.4838C86.7888 13.2414 89.1991 14.1855 89.1991 17.1976C89.1991 19.9105 87.4584 22.8704 82.8257 22.8704C81.2996 22.8704 79.5057 22.3767 78.3274 21.7601L76.7207 22.9687H76.3998V16.8031H76.7746C78.3813 20.0834 80.2826 22.3767 83.1477 22.3767C85.7717 22.3767 87.0833 20.7488 87.0833 19.1955C87.0833 17.0248 85.477 16.1618 82.157 15.1014C79.4794 14.2381 76.6938 13.4486 76.6938 10.267C76.6938 7.01169 79.3983 4.98961 83.0133 4.98961C84.5934 4.98961 86.066 5.40878 87.0304 5.82831L87.9939 4.84168H88.3158ZM105.942 4.82074L106.084 10.4643L105.753 10.4903C104.286 7.21351 102.771 5.31476 100.974 5.31476H100.051V20.893C100.051 21.9594 100.761 22.5314 102.866 22.6094V22.9478H94.4915V22.6094C96.5973 22.5314 97.3068 21.9594 97.3068 20.893V5.31476H96.3845C94.6338 5.31476 93.1197 7.08351 91.6292 10.4903L91.2979 10.4643L91.4402 4.82074H105.942ZM115.49 5.32628C112.782 5.32628 111.1 7.45869 111.1 13.9062C111.1 20.4032 112.956 22.5106 115.686 22.5106C118.394 22.5106 120.098 20.3782 120.098 13.9308C120.098 7.43374 118.22 5.32628 115.49 5.32628Z" fill="#004C97"/>
<path d="M181 8.39392H176V13.3939H173V8.39392H168V5.39392H173V0.393921H176V5.39392H181V8.39392Z" fill="#004C97"/>
</svg>
