<svg width="20" height="20" viewBox="0 0 20 20" fill="none" xmlns="http://www.w3.org/2000/svg">
<path d="M11.6667 7.4987H8.33333C7.875 7.4987 7.5 7.1237 7.5 6.66536C7.5 6.20703 7.875 5.83203 8.33333 5.83203H11.6667C12.125 5.83203 12.5 6.20703 12.5 6.66536C12.5 7.1237 12.125 7.4987 11.6667 7.4987Z" fill="#E9F2FF"/>
<path d="M11.6667 9.9987H8.33333C7.875 9.9987 7.5 9.6237 7.5 9.16536C7.5 8.70703 7.875 8.33203 8.33333 8.33203H11.6667C12.125 8.33203 12.5 8.70703 12.5 9.16536C12.5 9.6237 12.125 9.9987 11.6667 9.9987Z" fill="#E9F2FF"/>
<path d="M16.25 2.91602L15 1.66602L13.75 2.91602L12.5 1.66602L11.25 2.91602L10 1.66602L8.75 2.91602L7.5 1.66602L6.25 2.91602L5 1.66602V13.3327H3.33333C2.875 13.3327 2.5 13.7077 2.5 14.166V15.8327C2.5 17.216 3.61667 18.3327 5 18.3327H15C16.3833 18.3327 17.5 17.216 17.5 15.8327V1.66602L16.25 2.91602ZM12.5 16.666H5C4.54167 16.666 4.16667 16.291 4.16667 15.8327V14.9993H6.66667H10H12.5V16.666ZM15.8333 15.8327C15.8333 16.291 15.4583 16.666 15 16.666C14.5417 16.666 14.1667 16.291 14.1667 15.8327V14.166C14.1667 13.7077 13.7917 13.3327 13.3333 13.3327H11.6667H10H6.66667V4.16602H15.8333V15.8327Z" fill="#E9F2FF"/>
<path d="M14.1673 7.4987C14.6276 7.4987 15.0007 7.1256 15.0007 6.66536C15.0007 6.20513 14.6276 5.83203 14.1673 5.83203C13.7071 5.83203 13.334 6.20513 13.334 6.66536C13.334 7.1256 13.7071 7.4987 14.1673 7.4987Z" fill="#E9F2FF"/>
<path d="M14.1673 9.9987C14.6276 9.9987 15.0007 9.6256 15.0007 9.16536C15.0007 8.70513 14.6276 8.33203 14.1673 8.33203C13.7071 8.33203 13.334 8.70513 13.334 9.16536C13.334 9.6256 13.7071 9.9987 14.1673 9.9987Z" fill="#E9F2FF"/>
</svg>
