<svg width="20" height="20" viewBox="0 0 20 20" fill="none" xmlns="http://www.w3.org/2000/svg">
<g clip-path="url(#clip0_3793_36138)">
<path d="M18.3333 4.16602V5.83268H15.8333V8.33268H14.1667V5.83268H11.6667V4.16602H14.1667V1.66602H15.8333V4.16602H18.3333ZM15.8333 15.8327H4.16667V4.16602H9.16667V2.49935H4.16667C3.25 2.49935 2.5 3.24935 2.5 4.16602V15.8327C2.5 16.7493 3.25 17.4993 4.16667 17.4993H15.8333C16.75 17.4993 17.5 16.7493 17.5 15.8327V10.8327H15.8333V15.8327ZM12.5 10.8327V14.166H14.1667V10.8327H12.5ZM9.16667 14.166H10.8333V7.49935H9.16667V14.166ZM7.5 14.166V9.16602H5.83333V14.166H7.5Z" fill="#E9F2FF"/>
</g>
<defs>
<clipPath id="clip0_3793_36138">
<rect width="20" height="20" fill="white"/>
</clipPath>
</defs>
</svg>
