<svg width="20" height="20" viewBox="0 0 20 20" fill="none" xmlns="http://www.w3.org/2000/svg">
<path d="M7.08333 9.99935C8.69167 9.99935 10 8.69102 10 7.08268C10 5.47435 8.69167 4.16602 7.08333 4.16602C5.475 4.16602 4.16667 5.47435 4.16667 7.08268C4.16667 8.69102 5.475 9.99935 7.08333 9.99935ZM7.08333 5.83268C7.775 5.83268 8.33333 6.39102 8.33333 7.08268C8.33333 7.77435 7.775 8.33268 7.08333 8.33268C6.39167 8.33268 5.83333 7.77435 5.83333 7.08268C5.83333 6.39102 6.39167 5.83268 7.08333 5.83268ZM7.08333 11.4577C5.13333 11.4577 1.25 12.4327 1.25 14.3743V14.9993C1.25 15.4577 1.625 15.8327 2.08333 15.8327H12.0833C12.5417 15.8327 12.9167 15.4577 12.9167 14.9993V14.3743C12.9167 12.4327 9.03333 11.4577 7.08333 11.4577ZM3.2 14.166C3.9 13.6827 5.59167 13.1243 7.08333 13.1243C8.575 13.1243 10.2667 13.6827 10.9667 14.166H3.2ZM12.95 11.5077C13.9167 12.2077 14.5833 13.141 14.5833 14.3743V15.8327H17.0833C17.5417 15.8327 17.9167 15.4577 17.9167 14.9993V14.3743C17.9167 12.691 15 11.7327 12.95 11.5077ZM12.0833 9.99935C13.6917 9.99935 15 8.69102 15 7.08268C15 5.47435 13.6917 4.16602 12.0833 4.16602C11.6333 4.16602 11.2167 4.27435 10.8333 4.45768C11.3583 5.19935 11.6667 6.10768 11.6667 7.08268C11.6667 8.05768 11.3583 8.96602 10.8333 9.70768C11.2167 9.89102 11.6333 9.99935 12.0833 9.99935Z" fill="#E9F2FF"/>
</svg>
