<svg width="20" height="20" viewBox="0 0 20 20" fill="none" xmlns="http://www.w3.org/2000/svg">
<path fill-rule="evenodd" clip-rule="evenodd" d="M18.333 10.1887C18.333 9.59758 18.2785 9.02999 18.1784 8.48438H10.1699V11.7078H14.7465C14.5495 12.7496 13.9503 13.632 13.0498 14.2231V16.3137H15.7984C17.4054 14.8629 18.333 12.7268 18.333 10.1887Z" fill="#3E82F1"/>
<path fill-rule="evenodd" clip-rule="evenodd" d="M10.1694 18.3319C12.4654 18.3319 14.3904 17.5853 15.7971 16.3128L13.0486 14.2222C12.2867 14.7222 11.3134 15.0174 10.1686 15.0174C7.95363 15.0174 6.07908 13.5517 5.41017 11.582H2.57031V13.7409C3.96982 16.4643 6.84493 18.3319 10.1694 18.3319Z" fill="#32A753"/>
<path fill-rule="evenodd" clip-rule="evenodd" d="M5.41111 11.5836C5.24128 11.0835 5.14435 10.5497 5.14435 10.0002C5.14435 9.45062 5.24128 8.91679 5.41111 8.41671V6.25781H2.57045C1.99446 7.38279 1.66602 8.65536 1.66602 10.0002C1.66602 11.345 1.99446 12.6175 2.57045 13.7425L5.41111 11.5836Z" fill="#F9BB00"/>
<path fill-rule="evenodd" clip-rule="evenodd" d="M10.1694 4.98051C11.4175 4.98051 12.5391 5.4013 13.4203 6.22639L15.8596 3.8359C14.3864 2.49189 12.4614 1.66602 10.1694 1.66602C6.84493 1.66602 3.96982 3.53366 2.57031 6.257L5.41098 8.4159C6.07989 6.4462 7.95444 4.98051 10.1694 4.98051Z" fill="#E74133"/>
</svg>
