<svg width="20" height="20" viewBox="0 0 20 20" fill="none" xmlns="http://www.w3.org/2000/svg">
<path d="M10 2C5.584 2 2 5.584 2 10C2 14.416 5.584 18 10 18C14.416 18 18 14.416 18 10C18 5.584 14.416 2 10 2ZM10.8 15.6H9.2V14H10.8V15.6ZM12.456 9.4L11.736 10.136C11.336 10.544 11.048 10.912 10.904 11.488C10.84 11.744 10.8 12.032 10.8 12.4H9.2V12C9.2 11.632 9.264 11.28 9.376 10.952C9.536 10.488 9.8 10.072 10.136 9.736L11.128 8.728C11.496 8.376 11.672 7.848 11.568 7.288C11.464 6.712 11.016 6.224 10.456 6.064C9.568 5.816 8.744 6.32 8.48 7.08C8.384 7.376 8.136 7.6 7.824 7.6H7.584C7.12 7.6 6.8 7.152 6.928 6.704C7.272 5.528 8.272 4.632 9.512 4.44C10.728 4.248 11.888 4.88 12.608 5.88C13.552 7.184 13.272 8.584 12.456 9.4V9.4Z" fill="#CBCBCB"/>
</svg>
