<svg width="20" height="20" viewBox="0 0 20 20" fill="none" xmlns="http://www.w3.org/2000/svg">
<path d="M10.0007 5.39232C12.3006 5.39232 14.1673 7.25898 14.1673 9.55898C14.1673 9.98398 14.084 10.3923 13.9673 10.7757L16.5173 13.3257C17.6756 12.3007 18.5923 11.0173 19.1673 9.55065C17.7256 5.90065 14.1673 3.30898 10.0007 3.30898C8.94232 3.30898 7.92565 3.47565 6.96732 3.78398L8.77565 5.59232C9.16732 5.47565 9.57565 5.39232 10.0007 5.39232ZM2.25898 2.60898C1.93398 2.93398 1.93398 3.45898 2.25898 3.78398L3.90065 5.42565C2.55065 6.50065 1.47565 7.91732 0.833984 9.55898C2.27565 13.2173 5.83398 15.809 10.0007 15.809C11.2673 15.809 12.4756 15.559 13.5923 15.1257L15.859 17.3923C16.184 17.7173 16.709 17.7173 17.034 17.3923C17.359 17.0673 17.359 16.5423 17.034 16.2173L3.44232 2.60898C3.11732 2.28398 2.58398 2.28398 2.25898 2.60898ZM10.0007 13.7257C7.70065 13.7257 5.83398 11.859 5.83398 9.55898C5.83398 8.91732 5.98398 8.30898 6.24232 7.77565L7.55065 9.08398C7.52565 9.23398 7.50065 9.39232 7.50065 9.55898C7.50065 10.9423 8.61732 12.059 10.0007 12.059C10.1673 12.059 10.3173 12.034 10.4756 12.0007L11.784 13.309C11.2423 13.5757 10.6423 13.7257 10.0007 13.7257ZM12.4757 9.28398C12.3507 8.11732 11.434 7.20898 10.2757 7.08398L12.4757 9.28398Z" fill="#CBCBCB"/>
</svg>
