<svg width="1160" height="148" viewBox="0 0 1160 148" fill="none" xmlns="http://www.w3.org/2000/svg">
<path fill-rule="evenodd" clip-rule="evenodd" d="M51.9819 0L97.1362 113.976H97.9642L140.628 0H188.266V2.5378C170.453 3.17281 165.689 8.03672 165.689 16.4923V130.682C165.689 139.349 170.453 144.004 188.266 144.636V147.388H120.747V144.636C138.35 144.004 141.664 139.775 141.664 130.682V14.1684H140.628L90.5101 147.598H85.7436L31.2733 13.7451H30.2372V112.073C30.2372 132.796 35.4176 141.678 56.3344 144.636V147.388H0V144.636C19.4689 141.466 25.0611 132.796 25.0611 112.073V26.2201C25.0611 13.324 17.8085 2.95889 0 2.5378V0H51.9819ZM326.691 31.2075V33.2071C311.873 33.707 309.923 37.2063 309.923 44.2095V144.213H322.621C345.092 144.213 354.537 136.379 365.604 108.211L367.884 108.379L366.257 147.379H273.124V145.212C287.288 144.713 290.874 141.047 290.874 134.212V44.2095C290.874 37.5396 287.288 33.707 273.124 33.2071V31.2075H326.691ZM834.636 31.1433L895.925 118.96H896.08V58.7528C896.08 42.4542 890.831 35.4668 875.396 33.1407V31.1433H917.849V33.1407C903.337 35.8023 899.786 42.4542 899.786 58.7528V147.317H894.69L824.448 49.9392H824.293V119.293C824.293 135.592 828.304 142.579 844.054 144.907V147.069H801.751V144.907C816.263 142.412 820.587 135.592 820.587 119.293V52.432C820.587 42.1209 815.03 33.8049 801.751 33.1407V31.1433H834.636ZM259.966 31.1437V33.1456C244.347 33.6433 240.741 37.4781 240.741 44.148V134.149C240.741 140.983 244.347 144.651 259.966 145.151V147.317H201.604V145.151C217.225 144.651 220.831 140.983 220.831 134.149V44.148C220.831 37.4781 217.225 33.6433 201.604 33.1456V31.1437H259.966ZM470.964 31.1437L471.429 68.6455L469.262 68.981C460.28 45.3099 453.158 34.312 434.732 34.312H416.153V85.4801H424.515C437.364 85.4801 444.176 80.3144 448.358 62.6467H450.375V111.484H448.358C444.176 93.814 437.364 88.6461 424.515 88.6461H416.153V144.151H434.424C456.105 144.151 464.309 132.984 473.754 107.48L475.921 107.649L475.146 147.317H381.161V145.151C394.63 144.651 398.039 140.983 398.039 134.149V44.148C398.039 37.4781 394.63 33.6433 381.161 33.1456V31.1437H470.964ZM1020.46 31.1437L1020.92 68.6455L1018.75 68.981C1009.77 45.3099 1002.65 34.312 984.223 34.312H965.646V85.4801H974.006C986.857 85.4801 993.669 80.3144 997.851 62.6467H999.866V111.484H997.851C993.669 93.814 986.857 88.6461 974.006 88.6461H965.646V144.151H983.917C1005.6 144.151 1013.8 132.984 1023.24 107.48L1025.41 107.649L1024.64 147.317H930.654V145.151C944.123 144.651 947.53 140.983 947.53 134.149V44.148C947.53 37.4781 944.123 33.6433 930.654 33.1456V31.1437H1020.46ZM740.855 31.1156C766.612 31.1156 788.168 53.681 788.168 88.9625C788.168 123.926 765.91 147.287 740.855 147.287C714.96 147.287 693.405 124.719 693.405 89.4376C693.405 54.4759 715.664 31.1156 740.855 31.1156ZM566.002 31.0296V66.275H563.6C554.158 45.4142 543.175 34.9815 529.276 34.9815C517.604 34.9815 506.967 41.9351 506.967 54.4237C506.967 68.0156 518.118 73.0732 537.855 79.0788L540.828 80.0068C556.215 84.8619 571.663 90.9123 571.663 110.217C571.663 127.603 560.507 146.573 530.817 146.573C521.036 146.573 509.539 143.409 501.988 139.457L491.691 147.203H489.634V107.688H492.036C502.333 128.711 514.518 143.409 532.88 143.409C549.697 143.409 558.103 132.976 558.103 123.021C558.103 109.109 547.808 103.579 526.531 96.7826C509.371 91.2499 491.518 86.1901 491.518 65.7999C491.518 44.9368 508.851 31.9776 532.019 31.9776C542.145 31.9776 551.583 34.664 557.764 37.3527L563.939 31.0296H566.002ZM678.964 30.8954L679.874 67.064L677.751 67.2307C668.351 46.2302 658.645 34.0614 647.126 34.0614H641.213V133.9C641.213 140.734 645.76 144.4 659.252 144.9V147.069H605.581V144.9C619.077 144.4 623.624 140.734 623.624 133.9V34.0614H617.713C606.493 34.0614 596.789 45.3971 587.236 67.2307L585.113 67.064L586.025 30.8954H678.964ZM740.156 34.1353C722.801 34.1353 712.02 47.8016 712.02 89.1224C712.02 130.761 723.919 144.267 741.415 144.267C758.77 144.267 769.689 130.601 769.689 89.28C769.689 47.6417 757.652 34.1353 740.156 34.1353Z" fill="#07539E"/>
<path d="M1160 53.7953H1127.96V85.8395H1108.73V53.7953H1076.69V34.5687H1108.73V2.52454H1127.96V34.5687H1160V53.7953Z" fill="#07539E"/>
</svg>
