<svg width="140" height="21" viewBox="0 0 140 21" fill="none" xmlns="http://www.w3.org/2000/svg">
<path fill-rule="evenodd" clip-rule="evenodd" d="M7.0971 0.524902L13.262 15.9304H13.3751L19.2 0.524902H25.704V0.867923C23.272 0.953754 22.6216 1.61119 22.6216 2.75408V18.1885C22.6216 19.36 23.272 19.9891 25.704 20.0747V20.4466H16.4856V20.0747C18.8889 19.9891 19.3414 19.4175 19.3414 18.1885V2.43998H19.2L12.3574 20.4749H11.7066L4.26974 2.38275H4.12829V15.6732C4.12829 18.4743 4.83558 19.6747 7.69134 20.0747V20.4466H0V20.0747C2.65809 19.6461 3.4216 18.4743 3.4216 15.6732V4.06894C3.4216 2.32584 2.43139 0.92484 0 0.867923V0.524902H7.0971ZM44.6031 4.74305V5.01333C42.5801 5.0809 42.3138 5.55389 42.3138 6.50047V20.0174H44.0476C47.1155 20.0174 48.405 18.9585 49.916 15.1512L50.2273 15.174L50.0051 20.4453H37.2896V20.1525C39.2235 20.0849 39.7131 19.5894 39.7131 18.6657V6.50047C39.7131 5.59893 39.2235 5.0809 37.2896 5.01333V4.74305H44.6031ZM113.953 4.73438L122.321 16.6041H122.342V8.46622C122.342 6.26321 121.625 5.31876 119.518 5.00435V4.73438H125.314V5.00435C123.333 5.36411 122.848 6.26321 122.848 8.46622V20.4369H122.152L112.562 7.27493H112.541V16.6491C112.541 18.8521 113.089 19.7966 115.239 20.1113V20.4035H109.463V20.1113C111.445 19.774 112.035 18.8521 112.035 16.6491V7.61186C112.035 6.21817 111.276 5.09414 109.463 5.00435V4.73438H113.953ZM35.4932 4.73444V5.00502C33.3608 5.07229 32.8684 5.59063 32.8684 6.49216V18.6571C32.8684 19.5808 33.3608 20.0766 35.4932 20.1442V20.437H27.525V20.1442C29.6577 20.0766 30.1501 19.5808 30.1501 18.6571V6.49216C30.1501 5.59063 29.6577 5.07229 27.525 5.00502V4.73444H35.4932ZM64.3008 4.73444L64.3643 9.80336L64.0684 9.84871C62.8421 6.64921 61.8698 5.16269 59.354 5.16269H56.8175V12.0788H57.9591C59.7134 12.0788 60.6435 11.3806 61.2145 8.99253H61.4898V15.5936H61.2145C60.6435 13.2053 59.7134 12.5067 57.9591 12.5067H56.8175V20.0091H59.312C62.2721 20.0091 63.3922 18.4997 64.6817 15.0525L64.9776 15.0753L64.8718 20.437H52.0399V20.1442C53.8789 20.0766 54.3443 19.5808 54.3443 18.6571V6.49216C54.3443 5.59063 53.8789 5.07229 52.0399 5.00502V4.73444H64.3008ZM139.323 4.73444L139.386 9.80336L139.09 9.84871C137.864 6.64921 136.892 5.16269 134.376 5.16269H131.84V12.0788H132.981C134.736 12.0788 135.666 11.3806 136.237 8.99253H136.512V15.5936H136.237C135.666 13.2053 134.736 12.5067 132.981 12.5067H131.84V20.0091H134.334C137.294 20.0091 138.414 18.4997 139.704 15.0525L140 15.0753L139.894 20.437H127.062V20.1442C128.901 20.0766 129.366 19.5808 129.366 18.6571V6.49216C129.366 5.59063 128.901 5.07229 127.062 5.00502V4.73444H139.323ZM101.149 4.73064C104.666 4.73064 107.609 7.78069 107.609 12.5495C107.609 17.2754 104.57 20.4329 101.149 20.4329C97.6136 20.4329 94.6707 17.3825 94.6707 12.6137C94.6707 7.88813 97.7097 4.73064 101.149 4.73064ZM77.2764 4.71901V9.48295H76.9484C75.6593 6.6633 74.1597 5.25317 72.2621 5.25317C70.6686 5.25317 69.2162 6.19306 69.2162 7.88107C69.2162 9.71823 70.7387 10.4018 73.4334 11.2136L73.8393 11.339C75.9402 11.9953 78.0492 12.8131 78.0492 15.4224C78.0492 17.7724 76.5261 20.3364 72.4725 20.3364C71.1371 20.3364 69.5675 19.9087 68.5365 19.3746L67.1306 20.4216H66.8498V15.0806H67.1778C68.5836 17.9221 70.2473 19.9087 72.7542 19.9087C75.0502 19.9087 76.1979 18.4986 76.1979 17.153C76.1979 15.2726 74.7924 14.5251 71.8873 13.6065C69.5445 12.8587 67.1071 12.1748 67.1071 9.41873C67.1071 6.59878 69.4735 4.84715 72.6366 4.84715C74.0192 4.84715 75.3077 5.21026 76.1516 5.57367L76.9946 4.71901H77.2764ZM92.6991 4.70087L92.8233 9.5896L92.5335 9.61213C91.2501 6.77361 89.9249 5.12881 88.3523 5.12881H87.5449V18.6235C87.5449 19.5473 88.1658 20.0428 90.0078 20.1103V20.4034H82.68V20.1103C84.5226 20.0428 85.1435 19.5473 85.1435 18.6235V5.12881H84.3364C82.8046 5.12881 81.4798 6.66099 80.1755 9.61213L79.8856 9.5896L80.0102 4.70087H92.6991ZM101.054 5.13879C98.6842 5.13879 97.2122 6.98599 97.2122 12.5711C97.2122 18.1992 98.8368 20.0247 101.226 20.0247C103.595 20.0247 105.086 18.1775 105.086 12.5924C105.086 6.96438 103.442 5.13879 101.054 5.13879Z" fill="#E9F2FF"/>
</svg>
